<svg width="18" height="20" viewBox="0 0 18 20" fill="none" xmlns="http://www.w3.org/2000/svg">
<path d="M1.50799 9.35008V13.0917C1.50799 16.8334 3.00799 18.3334 6.74966 18.3334H11.2413C14.983 18.3334 16.483 16.8334 16.483 13.0917V9.35008M8.99966 10.0001C10.5247 10.0001 11.6497 8.75842 11.4997 7.23342L10.9497 1.66675H7.05799L6.49966 7.23342C6.34966 8.75842 7.47466 10.0001 8.99966 10.0001ZM14.258 10.0001C15.9413 10.0001 17.1747 8.63342 17.008 6.95842L16.7747 4.66675C16.4747 2.50008 15.6413 1.66675 13.458 1.66675H10.9163L11.4997 7.50842C11.6413 8.88342 12.883 10.0001 14.258 10.0001ZM3.69966 10.0001C5.07466 10.0001 6.31632 8.88342 6.44966 7.50842L7.03299 1.66675H4.49133C2.30799 1.66675 1.47466 2.50008 1.17466 4.66675L0.949658 6.95842C0.782991 8.63342 2.01632 10.0001 3.69966 10.0001ZM8.99966 14.1667C7.60799 14.1667 6.91633 14.8584 6.91633 16.2501V18.3334H11.083V16.2501C11.083 14.8584 10.3913 14.1667 8.99966 14.1667Z" stroke="#FF6C78" stroke-width="1.5" stroke-linecap="round" stroke-linejoin="round"/>
</svg>
