<svg width="20" height="20" viewBox="0 0 20 20" fill="none" xmlns="http://www.w3.org/2000/svg">
<path d="M14.1419 12.0334C15.2835 12.2251 16.5419 12.0251 17.4252 11.4334C18.6002 10.6501 18.6002 9.36676 17.4252 8.58342C16.5335 7.99176 15.2585 7.79175 14.1169 7.99175M5.83353 12.0334C4.69186 12.2251 3.43353 12.0251 2.5502 11.4334C1.3752 10.6501 1.3752 9.36676 2.5502 8.58342C3.44186 7.99176 4.71686 7.79175 5.85853 7.99175M15.0002 5.96675C14.9502 5.95842 14.8919 5.95842 14.8419 5.96675C13.6919 5.92508 12.7752 4.98342 12.7752 3.81675C12.7752 2.62508 13.7335 1.66675 14.9252 1.66675C16.1169 1.66675 17.0752 2.63342 17.0752 3.81675C17.0669 4.98342 16.1502 5.92508 15.0002 5.96675ZM4.97519 5.96675C5.02519 5.95842 5.08353 5.95842 5.13353 5.96675C6.28353 5.92508 7.20019 4.98342 7.20019 3.81675C7.20019 2.62508 6.24186 1.66675 5.05019 1.66675C3.85853 1.66675 2.90019 2.63342 2.90019 3.81675C2.90853 4.98342 3.82519 5.92508 4.97519 5.96675ZM10.0002 12.1918C9.95019 12.1834 9.89186 12.1834 9.84186 12.1918C8.69186 12.1501 7.77519 11.2084 7.77519 10.0418C7.77519 8.85008 8.73353 7.89175 9.92519 7.89175C11.1169 7.89175 12.0752 8.85842 12.0752 10.0418C12.0669 11.2084 11.1502 12.1584 10.0002 12.1918ZM7.57519 14.8167C6.40019 15.6001 6.40019 16.8834 7.57519 17.6667C8.90853 18.5584 11.0919 18.5584 12.4252 17.6667C13.6002 16.8834 13.6002 15.6001 12.4252 14.8167C11.1002 13.9334 8.90853 13.9334 7.57519 14.8167Z" stroke="#FF6C78" stroke-width="1.5" stroke-linecap="round" stroke-linejoin="round"/>
</svg>
