<svg width="18" height="19" viewBox="0 0 18 19" fill="none" xmlns="http://www.w3.org/2000/svg">
<path d="M12.6749 3.33341C14.2916 3.33341 15.5916 4.64175 15.5916 6.25008C15.5916 7.82508 14.3416 9.10842 12.7833 9.16675C12.7166 9.15842 12.6416 9.15842 12.5666 9.16675M14.2833 16.6667C14.8833 16.5417 15.4499 16.3001 15.9166 15.9417C17.2166 14.9667 17.2166 13.3584 15.9166 12.3834C15.4583 12.0334 14.8999 11.8001 14.3083 11.6667M6.63327 9.05841C6.54993 9.05008 6.44993 9.05008 6.35827 9.05841C4.37493 8.99175 2.79993 7.36675 2.79993 5.36675C2.79993 3.32508 4.44993 1.66675 6.49993 1.66675C8.5416 1.66675 10.1999 3.32508 10.1999 5.36675C10.1916 7.36675 8.6166 8.99175 6.63327 9.05841ZM2.4666 12.1334C0.449935 13.4834 0.449935 15.6834 2.4666 17.0251C4.75827 18.5584 8.5166 18.5584 10.8083 17.0251C12.8249 15.6751 12.8249 13.4751 10.8083 12.1334C8.52494 10.6084 4.7666 10.6084 2.4666 12.1334Z" stroke="#FF6C78" stroke-width="1.5" stroke-linecap="round" stroke-linejoin="round"/>
</svg>
