<svg width="12" height="12" viewBox="0 0 12 12" fill="none" xmlns="http://www.w3.org/2000/svg">
<path d="M2.94 9.075C2.94 9.35114 3.16386 9.575 3.44 9.575C3.71614 9.575 3.94 9.35114 3.94 9.075H2.94ZM3.94 8.04C3.94 7.76386 3.71614 7.54 3.44 7.54C3.16386 7.54 2.94 7.76386 2.94 8.04H3.94ZM5.5 9.075C5.5 9.35114 5.72386 9.575 6 9.575C6.27614 9.575 6.5 9.35114 6.5 9.075H5.5ZM6.5 7.005C6.5 6.72886 6.27614 6.505 6 6.505C5.72386 6.505 5.5 6.72886 5.5 7.005H6.5ZM8.06 9.075C8.06 9.35114 8.28386 9.575 8.56 9.575C8.83614 9.575 9.06 9.35114 9.06 9.075H8.06ZM9.06 5.965C9.06 5.68886 8.83614 5.465 8.56 5.465C8.28386 5.465 8.06 5.68886 8.06 5.965H9.06ZM8.56 2.925H9.06V2.425H8.56V2.925ZM8.33 3.195L8.7099 3.52008L8.71062 3.51923L8.33 3.195ZM3.31903 5.72985C3.05109 5.79666 2.88805 6.06803 2.95485 6.33597C3.02166 6.60391 3.29303 6.76695 3.56097 6.70015L3.31903 5.72985ZM7.095 2.425C6.81886 2.425 6.595 2.64886 6.595 2.925C6.595 3.20114 6.81886 3.425 7.095 3.425V2.425ZM8.06 4.385C8.06 4.66114 8.28386 4.885 8.56 4.885C8.83614 4.885 9.06 4.66114 9.06 4.385H8.06ZM3.94 9.075V8.04H2.94V9.075H3.94ZM6.5 9.075V7.005H5.5V9.075H6.5ZM9.06 9.075V5.965H8.06V9.075H9.06ZM8.17938 2.60077L7.94938 2.87077L8.71062 3.51923L8.94062 3.24923L8.17938 2.60077ZM7.9501 2.86992C6.74293 4.28066 5.12356 5.27991 3.31903 5.72985L3.56097 6.70015C5.56644 6.20009 7.36707 5.08934 8.7099 3.52008L7.9501 2.86992ZM7.095 3.425H8.56V2.425H7.095V3.425ZM8.06 2.925V4.385H9.06V2.925H8.06ZM4.5 11.5H7.5V10.5H4.5V11.5ZM7.5 11.5C8.79931 11.5 9.83891 11.2432 10.5411 10.5411C11.2432 9.83891 11.5 8.79931 11.5 7.5H10.5C10.5 8.70069 10.2568 9.41109 9.83395 9.83395C9.41109 10.2568 8.70069 10.5 7.5 10.5V11.5ZM11.5 7.5V4.5H10.5V7.5H11.5ZM11.5 4.5C11.5 3.20069 11.2432 2.16109 10.5411 1.45895C9.83891 0.756801 8.79931 0.5 7.5 0.5V1.5C8.70069 1.5 9.41109 1.7432 9.83395 2.16605C10.2568 2.58891 10.5 3.29931 10.5 4.5H11.5ZM7.5 0.5H4.5V1.5H7.5V0.5ZM4.5 0.5C3.20069 0.5 2.16109 0.756801 1.45895 1.45895C0.756801 2.16109 0.5 3.20069 0.5 4.5H1.5C1.5 3.29931 1.7432 2.58891 2.16605 2.16605C2.58891 1.7432 3.29931 1.5 4.5 1.5V0.5ZM0.5 4.5V7.5H1.5V4.5H0.5ZM0.5 7.5C0.5 8.79931 0.756801 9.83891 1.45895 10.5411C2.16109 11.2432 3.20069 11.5 4.5 11.5V10.5C3.29931 10.5 2.58891 10.2568 2.16605 9.83395C1.7432 9.41109 1.5 8.70069 1.5 7.5H0.5Z" fill="#7A5AF8"/>
</svg>
